<svg xmlns="http://www.w3.org/2000/svg" width="1600" height="1000" viewBox="0 0 1600 1000" role="img" aria-label="Warm kitchen table with Maharashtrian masalas">
  <defs>
    <linearGradient id="bg" x1="0" x2="1" y1="0" y2="1">
      <stop offset="0" stop-color="#fff5d8"/>
      <stop offset="0.55" stop-color="#f4d7a1"/>
      <stop offset="1" stop-color="#8b4b16"/>
    </linearGradient>
    <radialGradient id="glow" cx="35%" cy="20%" r="55%">
      <stop offset="0" stop-color="#ffffff" stop-opacity="0.88"/>
      <stop offset="1" stop-color="#ffffff" stop-opacity="0"/>
    </radialGradient>
    <filter id="soft" x="-20%" y="-20%" width="140%" height="140%">
      <feGaussianBlur stdDeviation="24"/>
    </filter>
  </defs>
  <rect width="1600" height="1000" fill="url(#bg)"/>
  <rect width="1600" height="1000" fill="url(#glow)"/>
  <path d="M0 716c250-70 509-95 780-75 315 23 566 7 820-65v424H0Z" fill="#6e2c00" opacity="0.22"/>
  <ellipse cx="792" cy="668" rx="516" ry="136" fill="#3b1d08" opacity="0.17" filter="url(#soft)"/>
  <g transform="translate(560 270)">
    <ellipse cx="240" cy="400" rx="270" ry="64" fill="#2b1700" opacity="0.22"/>
    <path d="M78 134h324l-34 348c-5 49-47 86-96 86h-64c-49 0-91-37-96-86Z" fill="#fffaf0" stroke="#865300" stroke-width="9"/>
    <path d="M91 268h298l-16 162H107Z" fill="#f39c12" opacity="0.85"/>
    <rect x="112" y="300" width="256" height="96" rx="20" fill="#fff8e8"/>
    <text x="240" y="350" text-anchor="middle" fill="#5b2a00" font-family="Georgia, serif" font-size="44" font-weight="700">MASALA</text>
    <text x="240" y="384" text-anchor="middle" fill="#7c4a12" font-family="Arial, sans-serif" font-size="18" font-weight="700">HOMEMADE BLENDS</text>
    <ellipse cx="240" cy="134" rx="162" ry="40" fill="#ffffff" stroke="#865300" stroke-width="9"/>
    <ellipse cx="240" cy="136" rx="128" ry="25" fill="#7b3513"/>
    <path d="M120 136c62-20 167-21 240 0" fill="none" stroke="#f7b45a" stroke-width="12" opacity="0.72"/>
  </g>
  <g opacity="0.95">
    <ellipse cx="330" cy="745" rx="190" ry="58" fill="#3b1d08" opacity="0.18"/>
    <ellipse cx="330" cy="690" rx="175" ry="72" fill="#9f5b24"/>
    <ellipse cx="330" cy="667" rx="166" ry="70" fill="#f3eedc" stroke="#865300" stroke-width="8"/>
    <ellipse cx="330" cy="660" rx="126" ry="46" fill="#b02d21"/>
    <circle cx="235" cy="648" r="11" fill="#f39c12"/>
    <circle cx="283" cy="631" r="9" fill="#f39c12"/>
    <circle cx="375" cy="630" r="12" fill="#f39c12"/>
    <circle cx="424" cy="653" r="8" fill="#f39c12"/>
  </g>
  <g opacity="0.95">
    <ellipse cx="1210" cy="750" rx="198" ry="62" fill="#3b1d08" opacity="0.18"/>
    <ellipse cx="1210" cy="692" rx="170" ry="68" fill="#9f5b24"/>
    <ellipse cx="1210" cy="666" rx="160" ry="66" fill="#f3eedc" stroke="#865300" stroke-width="8"/>
    <ellipse cx="1210" cy="660" rx="119" ry="42" fill="#f39c12"/>
    <circle cx="1138" cy="650" r="10" fill="#95491c"/>
    <circle cx="1190" cy="635" r="11" fill="#95491c"/>
    <circle cx="1268" cy="655" r="10" fill="#95491c"/>
  </g>
  <path d="M144 370c80-30 160-43 240-38m880 30c74 6 140 28 198 66" fill="none" stroke="#fff8e4" stroke-width="14" stroke-linecap="round" opacity="0.45"/>
</svg>
