<svg xmlns="http://www.w3.org/2000/svg" width="900" height="620" viewBox="0 0 900 620" role="img" aria-label="Maharashtrian dish with masala">
  <defs>
    <linearGradient id="cloth" x1="0" x2="1" y1="0" y2="1">
      <stop offset="0" stop-color="#fff9e8"/>
      <stop offset="1" stop-color="#ead2a2"/>
    </linearGradient>
  </defs>
  <rect width="900" height="620" fill="url(#cloth)"/>
  <path d="M0 426c120-40 251-58 392-54 178 6 331-15 508-72v320H0Z" fill="#6e2c00" opacity="0.12"/>
  <ellipse cx="450" cy="385" rx="310" ry="92" fill="#2b1700" opacity="0.16"/>
  <ellipse cx="450" cy="318" rx="275" ry="116" fill="#9b5c2d"/>
  <ellipse cx="450" cy="284" rx="255" ry="104" fill="#f3eedc" stroke="#865300" stroke-width="10"/>
  <ellipse cx="450" cy="278" rx="190" ry="68" fill="#b97931"/>
  <path d="M306 268c84-45 201-47 291-4" fill="none" stroke="#f39c12" stroke-width="18" stroke-linecap="round" opacity="0.78"/>
  <circle cx="350" cy="260" r="12" fill="#b02d21"/>
  <circle cx="408" cy="238" r="10" fill="#b02d21"/>
  <circle cx="500" cy="236" r="12" fill="#b02d21"/>
  <circle cx="552" cy="265" r="10" fill="#b02d21"/>
  <path d="M330 132c54-28 116-31 185-9M594 150c46 6 86 22 119 48" fill="none" stroke="#ffffff" stroke-width="13" stroke-linecap="round" opacity="0.54"/>
</svg>
